<svg xmlns="http://www.w3.org/2000/svg" viewBox="0 0 612 409.275">
  <defs>
    <style>
      .cls-1 {
        fill: #3b65ad;
      }
    </style>
  </defs>
  <g id="mail" transform="translate(0 -101.362)">
    <path id="Path_32" data-name="Path 32" class="cls-1" d="M306.768,346.814h.131a23.537,23.537,0,0,0,12.866-3.777l1-.643c.218-.142.446-.271.675-.424l11.658-9.645L611.358,102.7a3.27,3.27,0,0,0-2.6-1.339H3.233a3.143,3.143,0,0,0-2,.729L292.355,342.045A22.807,22.807,0,0,0,306.768,346.814ZM0,133.9v340.37L208.55,305.8ZM403.668,306.941,612,474.356V135.031Zm-66.237,54.644a49.625,49.625,0,0,1-61.163.054L228.5,322.245,0,506.806v.587a3.309,3.309,0,0,0,3.276,3.244H608.767A3.3,3.3,0,0,0,612,507.382v-.544L383.693,323.4Z"/>
  </g>
</svg>
