<svg xmlns="http://www.w3.org/2000/svg" viewBox="0 0 101.406 35.605">
  <defs>
    <style>
      .cls-1 {
        fill: #3b65ad;
      }
    </style>
  </defs>
  <path id="Path_34" data-name="Path 34" class="cls-1" d="M5.352-14.531a1.217,1.217,0,0,1,.137.586,1.882,1.882,0,0,1-.117.625A1,1,0,0,1,5-12.812a4.242,4.242,0,0,1-.342.635q-.166.244-.322.479-.059.137-.117.264a1.641,1.641,0,0,1-.156.264q-.059.1-.254.391t-.4.615q-.205.322-.361.615a1.208,1.208,0,0,0-.156.371q0,.078.186.2a1.615,1.615,0,0,1,.244.176q.1.1.186.2t.186.2q.215.176.42.352t.42.391q.41.371.859.7a4.134,4.134,0,0,1,.8.781.61.61,0,0,1,.43.469,1.886,1.886,0,0,1,.059.7,1.092,1.092,0,0,1,.068.117l.068.137a.922.922,0,0,1-.088.459,3.639,3.639,0,0,0-.186.361,1.3,1.3,0,0,0-.127.391.91.91,0,0,1-.127.352.313.313,0,0,1-.107.1.269.269,0,0,0-.107.117,1.331,1.331,0,0,0-.127.322,1.769,1.769,0,0,1-.127.342,2.248,2.248,0,0,1-.146.313,2.248,2.248,0,0,0-.146.313,1.462,1.462,0,0,0-.068.234.266.266,0,0,1-.186.2,3.8,3.8,0,0,1-.264.684A3.8,3.8,0,0,0,4.746.1a2.159,2.159,0,0,0-.439.225.874.874,0,0,1-.42.166.115.115,0,0,1-.1-.059.3.3,0,0,0-.117-.1.15.15,0,0,0-.107,0,.419.419,0,0,1-.107.02A.161.161,0,0,1,3.311.273.313.313,0,0,0,3.184.156L3.066.2a.369.369,0,0,1-.117.02q-.137,0-.156-.068A.237.237,0,0,0,2.676.02Q2.441-.1,2.4-.2a.247.247,0,0,0-.117-.137A4.948,4.948,0,0,1,2.656-1.3q.234-.459.449-.928a1.54,1.54,0,0,1,.146-.293,3.129,3.129,0,0,0,.166-.293q.059-.137.176-.352a4.763,4.763,0,0,0,.215-.449q.1-.234.176-.439a1,1,0,0,0,.078-.342.516.516,0,0,0-.156-.41q-.566-.469-1.064-.957t-1.045-1Q1.445-7.07,1.035-7.4a.35.35,0,0,1-.117-.176A.692.692,0,0,0,.8-7.793.255.255,0,0,0,.684-7.91a.255.255,0,0,1-.117-.117.433.433,0,0,1-.078-.186.236.236,0,0,0-.117-.166A.4.4,0,0,0,.137-8.5.4.4,0,0,1-.1-8.613.145.145,0,0,0-.049-8.74a.9.9,0,0,1-.01-.127.2.2,0,0,1,.117-.2.218.218,0,0,0,.117-.215.9.9,0,0,1,.117-.2,9.114,9.114,0,0,1,.488-1.016q.273-.488.566-.977.1-.156.186-.3t.186-.3q.059-.137.107-.244a.7.7,0,0,1,.146-.205,6.127,6.127,0,0,0,.459-.586,2.066,2.066,0,0,0,.283-.664,2.457,2.457,0,0,1,.078-.273,2.685,2.685,0,0,1,.146-.352,2.33,2.33,0,0,1,.186-.312.271.271,0,0,1,.215-.137.811.811,0,0,1,.283.078,2.917,2.917,0,0,0,.322.117q.117.039.244.068a1.085,1.085,0,0,0,.244.029A.293.293,0,0,0,4.59-14.6a.325.325,0,0,1,.176-.049.865.865,0,0,1,.293.049A1.376,1.376,0,0,0,5.352-14.531ZM17.6-7.754q-.039.078-.078.146a.575.575,0,0,0-.059.146,1.78,1.78,0,0,1,.146.166.3.3,0,0,1,.068.186.368.368,0,0,1-.029.146.175.175,0,0,0-.01.127,2.441,2.441,0,0,1-.166.254.775.775,0,0,0-.127.254.892.892,0,0,0-.127.156q-.049.078-.088.156A.2.2,0,0,0,17-5.889a.3.3,0,0,1-.107.146,2.081,2.081,0,0,1-.2.371q-.176.293-.391.625T15.9-4.1q-.2.312-.273.41a.581.581,0,0,1-.088.156q-.049.059-.107.137a.451.451,0,0,0-.059.127.243.243,0,0,1-.059.107.705.705,0,0,1-.088.137.581.581,0,0,0-.088.156,4.894,4.894,0,0,0-.391.605q-.2.352-.371.625-.1.156-.186.313T14-1.016q-.1.156-.2.293t-.2.293a1.257,1.257,0,0,0-.273.283,1.257,1.257,0,0,1-.273.283A.288.288,0,0,1,12.754-.1Q12.5-.156,12.5-.1V0a.21.21,0,0,0-.107.117.21.21,0,0,1-.107.117.664.664,0,0,1-.264-.127.4.4,0,0,0-.3-.068,1.08,1.08,0,0,0-.176-.205,1.566,1.566,0,0,1-.176-.186.563.563,0,0,0-.107-.2q-.068-.078-.127-.156a2.058,2.058,0,0,0-.117-.176L10.9-1.035l-.264-.342a2.806,2.806,0,0,1-.225-.342q-.156-.234-.3-.479t-.3-.479L9.648-2.91a2.183,2.183,0,0,1-.137-.234q-.039-.1-.107-.234a.338.338,0,0,0-.166-.176A.418.418,0,0,0,9.1-3.789a1.381,1.381,0,0,1-.2-.2,2.738,2.738,0,0,1-.254-.342q-.117-.186-.234-.381-.391-.547-.732-1.074T7.012-6.875a1.748,1.748,0,0,0,.1-.469.343.343,0,0,1,.1-.254,1.068,1.068,0,0,1,.039-.234q.254-.43.488-.781a3.542,3.542,0,0,0,.3-.547q.088-.215.186-.449a.483.483,0,0,0,.156-.146.743.743,0,0,1,.156-.166.7.7,0,0,1,.176-.361.7.7,0,0,0,.176-.361.461.461,0,0,0,.2-.312.726.726,0,0,0,.313-.469,1.553,1.553,0,0,0,.264-.352q.107-.2.205-.41a1.354,1.354,0,0,0,.371-.508.477.477,0,0,0,.176-.215.739.739,0,0,1,.156-.234q.156-.254.244-.42T11-13.906a.168.168,0,0,0,.176-.1.126.126,0,0,1,.156-.078.524.524,0,0,1,.1-.312q.039-.02.117-.049t.078-.068q-.039-.234.02-.273a.64.64,0,0,0,.1-.078q.215.039.293.059a1,1,0,0,1,.254.137.381.381,0,0,1,.273.078.52.52,0,0,0,.176.117.892.892,0,0,1,.127.156.3.3,0,0,0,.146.117q.156.215.332.469t.332.469q.215.293.439.557a4.852,4.852,0,0,1,.42.576q.059.1.215.342t.352.518q.2.273.352.5a1.273,1.273,0,0,0,.215.264q.059.1.254.371t.42.576q.225.3.439.576t.293.352a5.628,5.628,0,0,1,.322.479Q17.5-7.969,17.6-7.754ZM13.125-4.082a3.757,3.757,0,0,0,.332-.527l.234-.469a1.6,1.6,0,0,0,.234-.332,1.366,1.366,0,0,1,.1-.2q.156-.234.322-.469a2.091,2.091,0,0,0,.264-.508.5.5,0,0,0,.176-.2.674.674,0,0,1,.176-.215,2.172,2.172,0,0,0-.273-.635q-.156-.225-.312-.439l-.117-.2-.117-.2a.751.751,0,0,1-.127-.117q-.049-.059-.107-.117-.039-.1-.117-.254a2.131,2.131,0,0,0-.156-.176.743.743,0,0,1-.137-.2q-.078-.078-.2-.215t-.244-.3q-.127-.166-.225-.312t-.156-.244q-.039-.1-.068-.166t-.068-.146a2.669,2.669,0,0,0-.2-.244,2.669,2.669,0,0,1-.2-.244.308.308,0,0,1-.107.049.17.17,0,0,0-.088.049,3.4,3.4,0,0,1-.3.469,5.362,5.362,0,0,0-.322.469q-.137.234-.273.479t-.273.479q-.1.137-.186.264t-.186.283a1.787,1.787,0,0,0-.166.283,1.787,1.787,0,0,1-.166.283,3.8,3.8,0,0,0-.254.352,3.213,3.213,0,0,0-.2.371q.059.117.186.322t.264.41q.137.205.244.381a1.536,1.536,0,0,1,.127.234,1.233,1.233,0,0,1,.254.3,1.621,1.621,0,0,0,.254.322,1.41,1.41,0,0,0,.176.273q.1.117.2.254t.254.4q.156.264.313.537t.313.508a1.019,1.019,0,0,0,.254.293,1.992,1.992,0,0,0,.322-.479A1.743,1.743,0,0,1,13.125-4.082Zm13.75,1.738q-.2.02-.234-.02-.078.039-.146.078a1.428,1.428,0,0,0-.146.1,3.1,3.1,0,0,0-.537.254q-.264.156-.537.293a2.319,2.319,0,0,1-.3.127,2.319,2.319,0,0,0-.3.127q-.234.117-.469.244a4.157,4.157,0,0,1-.488.225l-.264.078-.264.078a2.3,2.3,0,0,0-.283.127q-.127.068-.264.127a1.893,1.893,0,0,1-.205.068,1.227,1.227,0,0,0-.225.088.588.588,0,0,0-.166.1.588.588,0,0,1-.166.1q-.156.059-.322.117A2.814,2.814,0,0,0,21.23.1a.888.888,0,0,0-.225.146.655.655,0,0,1-.264.127q-.2.117-.215.127a.136.136,0,0,1-.059.01q-.059.039-.107.068t-.107.068a1.423,1.423,0,0,0-.234.02,1.423,1.423,0,0,1-.234.02A.517.517,0,0,1,19.6.527a.4.4,0,0,1-.049-.215A1.774,1.774,0,0,1,19.4.1a1.774,1.774,0,0,0-.146-.215q-.137.078-.166-.01a1.425,1.425,0,0,1-.049-.2L19-.537a.624.624,0,0,0-.039-.146,2.416,2.416,0,0,1-.1-.547.155.155,0,0,1,.039-.127.1.1,0,0,0,.039-.088q.02-.2.039-.449T19-2.422V-3.457q0-.879-.02-1.709t-.02-1.67q0-.391.02-.781T19-8.4q0-.957.029-1.895t.029-1.895q0-.391-.039-.791t-.059-.811a.917.917,0,0,1,.02-.342.6.6,0,0,0,.02-.264.786.786,0,0,1,.215-.02q.156,0,.322-.01l.313-.02a.62.62,0,0,0,.186-.029.468.468,0,0,0,.273.1.355.355,0,0,0,.254-.117.267.267,0,0,1,.107.059q.01.02.107.02l.273-.029q.1-.01.176-.01a.633.633,0,0,1,.264.381,3.53,3.53,0,0,1,.068.469q.02.244.029.488t.01.4a1.606,1.606,0,0,0,.02.244,1.732,1.732,0,0,1,.02.264q0,.1-.01.2t-.01.2q0,.566.01,1.152t.01,1.152q0,1.016-.029,2.041T21.582-5.43q0,.215.02.43t.02.43q0,.117-.01.234T21.6-4.1q0,.723.059,1.445.078-.02.332-.107t.527-.2q.273-.107.508-.215a1.2,1.2,0,0,0,.293-.166.593.593,0,0,0,.215-.059,3.066,3.066,0,0,0,.293-.146q.156-.088.3-.166a.912.912,0,0,0,.205-.137q-.02-.391-.02-.791V-5.43q0-1.074.029-2.148t.029-2.187q0-.684-.02-1.367t-.02-1.367q0-.215.01-.439t.01-.439q0-.332-.01-.654a4.443,4.443,0,0,1,.029-.654,1.415,1.415,0,0,1,.215-.1h.166a.121.121,0,0,1,.088.039.208.208,0,0,0,.107.01.549.549,0,0,1,.107-.01.522.522,0,0,1,.2.039.522.522,0,0,0,.2.039q.156-.02.166.039a.063.063,0,0,0,.068.059q.156-.059.215,0a1.582,1.582,0,0,0,.215.107l.332.146q.176.078.313.146t.137.127a2.764,2.764,0,0,1,.039.664q-.02.352-.02.664,0,.273.02.547t.02.547v.313a2.074,2.074,0,0,0,.02.293.869.869,0,0,1,.02.166v.146a1.1,1.1,0,0,0,.039.254,1.044,1.044,0,0,0-.02.205v.205q0,.273.02.566t.02.586a2.256,2.256,0,0,1-.029.371,2.135,2.135,0,0,0-.029.352l.02.371q0,.2.02.391t.02.41q0,.1-.01.2t-.029.2a1.1,1.1,0,0,0-.02.215v.215q0,.273.02.547t.02.547q0,.176-.01.342t-.01.342q0,.352.029.723t.029.723a1.533,1.533,0,0,1-.039.332A.478.478,0,0,1,26.875-2.344ZM36.25-15.02a.309.309,0,0,1,.225.068.487.487,0,0,1,.107.166.8.8,0,0,1,.4.068.493.493,0,0,1,.244.166.274.274,0,0,1,.2.078.19.19,0,0,0,.117.078l.215-.02a.841.841,0,0,0,.3.156q.225.078.264.176a.438.438,0,0,0-.029.205q.01.107.01.244a1.871,1.871,0,0,1-.186.527q-.127.234-.225.449a.785.785,0,0,0-.088.215,1.669,1.669,0,0,1-.068.215q-.039.078-.068.146t-.068.146a.6.6,0,0,1-.039.205q-.039.107-.078.205a.494.494,0,0,1-.02.166.24.24,0,0,0-.02.088,14.51,14.51,0,0,0-.586,1.68l-.43,1.563a5.11,5.11,0,0,0-.2.586q-.1.352-.244.83T35.674-5.6q-.166.537-.312,1t-.254.781Q35-3.5,34.98-3.457a4.476,4.476,0,0,1-.176.674,6.02,6.02,0,0,0-.2.713.51.51,0,0,0-.117.264.773.773,0,0,1-.1.283.289.289,0,0,0-.254.078.628.628,0,0,0,.029.293.865.865,0,0,1,.049.293.465.465,0,0,1-.2.273.3.3,0,0,0-.156.2.185.185,0,0,0-.205.039.2.2,0,0,1-.146.078q-.234-.059-.273.078-.117-.039-.156.029a.212.212,0,0,1-.078.088.389.389,0,0,0-.244.068.448.448,0,0,1-.205.088Q32.48.039,32.4-.01a.767.767,0,0,1-.137-.107q-.117-.332-.215-.654t-.2-.654a1.932,1.932,0,0,0-.1-.293,1.932,1.932,0,0,1-.1-.293.869.869,0,0,1-.02-.166.606.606,0,0,0-.02-.146l-.078-.2-.078-.2a5.148,5.148,0,0,1-.234-.879q-.1-.332-.186-.654T30.879-4.9q-.059-.273-.137-.576a2.721,2.721,0,0,0-.2-.537,2.078,2.078,0,0,0-.166-.6,1.4,1.4,0,0,1-.127-.576q-.1-.313-.166-.625t-.166-.625a1.932,1.932,0,0,0-.1-.293,2.294,2.294,0,0,1-.1-.273,3.088,3.088,0,0,1-.1-.371l-.078-.391q-.059-.176-.117-.342t-.117-.342q-.1-.332-.186-.654t-.186-.654q-.1-.371-.186-.732a2.25,2.25,0,0,0-.3-.693.77.77,0,0,1-.088-.225,1.094,1.094,0,0,0-.088-.244,1.074,1.074,0,0,0,.02-.361.489.489,0,0,1,.059-.322q.2,0,.469-.01a1.416,1.416,0,0,1,.41.029.328.328,0,0,0,.127-.059.328.328,0,0,1,.127-.059.52.52,0,0,0,.234.059A.427.427,0,0,0,30-14.453q.215.1.234.039a.09.09,0,0,1,.1-.059.293.293,0,0,1,.176.166,2.364,2.364,0,0,0,.117.225,3.674,3.674,0,0,1,.322.771q.107.381.225.811.137.391.254.771t.215.771q.059.2.1.391l.078.391a3.2,3.2,0,0,0,.137.4q.078.186.156.4.039.215.078.42t.1.42a1.933,1.933,0,0,0,.1.293,1.933,1.933,0,0,1,.1.293q.039.156.078.322t.078.322q.1.391.215.771t.215.771a.272.272,0,0,0,.117-.215.649.649,0,0,1,.078-.254,3.612,3.612,0,0,1,.127-.508q.088-.273.166-.508a1.136,1.136,0,0,1,.049-.176q.029-.078.068-.176a.823.823,0,0,0,.078-.244,2.153,2.153,0,0,1,.059-.264q.078-.273.166-.547t.166-.547q.078-.254.137-.527a2.9,2.9,0,0,1,.156-.508q.1-.215.166-.41t.127-.41q.059-.215.1-.43a1.264,1.264,0,0,1,.137-.391q.039-.1.088-.225t.088-.244q.1-.312.176-.625a3.947,3.947,0,0,1,.215-.625,3.822,3.822,0,0,1,.234-.527A3.822,3.822,0,0,0,36-14.648a.836.836,0,0,1,.137-.254ZM46.855-3.34a.907.907,0,0,1,.166.283q.029.107.068.215t.068.205a.681.681,0,0,1,.029.117.459.459,0,0,1-.049.225,2.489,2.489,0,0,1-.146.225l-1.543.576q-.762.283-1.562.557a3.945,3.945,0,0,0-.391.127,2.128,2.128,0,0,1-.391.107.326.326,0,0,1-.127.068l-.205.068q-.117.039-.225.068a.687.687,0,0,1-.146.029,1.155,1.155,0,0,1-.342.029,2.214,2.214,0,0,0-.361.01.183.183,0,0,0-.137.1q-.039.078-.088.166a.473.473,0,0,1-.146.156.472.472,0,0,1-.273.068A3.181,3.181,0,0,1,40.7.039a1.428,1.428,0,0,1-.371-.1A.214.214,0,0,1,40.3-.205a.214.214,0,0,0-.029-.146A.5.5,0,0,0,40-.322a.777.777,0,0,1-.2.068.544.544,0,0,1-.088-.186.411.411,0,0,0-.107-.186.994.994,0,0,1-.02-.2v-.2q0-.137.01-.322a.622.622,0,0,1,.068-.283q.059-1.113.059-2.236v-2.52q0-.186-.01-.381t-.02-.361a1.456,1.456,0,0,0-.029-.244,1.865,1.865,0,0,0,.02-.264v-.479a.522.522,0,0,0-.039-.2.927.927,0,0,0,.02-.215.994.994,0,0,0-.02-.2.994.994,0,0,1-.02-.2q0-.156.01-.3t.01-.3q0-.508-.049-1.006t-.049-1.006q0-.664-.01-1.328t-.029-1.328a.926.926,0,0,0,.078-.332.667.667,0,0,1,.43-.1,1.284,1.284,0,0,0,.313.039.726.726,0,0,0,.176-.02.763.763,0,0,0,.156-.059.847.847,0,0,1,.166.049A.421.421,0,0,0,41-14.57q.293-.059.322-.02a.355.355,0,0,0,.088.078.266.266,0,0,0,.127-.068.172.172,0,0,1,.127-.049q.117,0,.176.146a.959.959,0,0,0,.137.244.951.951,0,0,0,.078.391q.039.8.029,1.582t.049,1.563q.02.352.049.732t.029.732q0,.586.01,1.182t.01,1.2a1.427,1.427,0,0,0,.01.176,1.427,1.427,0,0,1,.01.176q0,.234-.02.449t-.02.43V-4.1q0,.2-.01.4a2.72,2.72,0,0,0,.01.4l.078.234q.215-.078.439-.166a2.246,2.246,0,0,1,.479-.127q.156-.039.293-.078t.293-.078a3.228,3.228,0,0,1,.43-.215l.313-.117q.332-.117.645-.244t.645-.244a.279.279,0,0,0,.254-.039,1.81,1.81,0,0,0,.352.039A1.249,1.249,0,0,1,46.689-4a.665.665,0,0,0,.146.215q-.039.1.01.117a.129.129,0,0,1,.068.1q.078.039.02.107A.4.4,0,0,0,46.855-3.34Zm2.09,3.027-.117.078-.117.078a.941.941,0,0,1-.391.127.672.672,0,0,0-.391.205q-.078-.1-.117-.1h-.137q-.254,0-.293-.137a1.53,1.53,0,0,0-.244.1q-.166.078-.244.117a2.506,2.506,0,0,0,.234-.391A.824.824,0,0,0,47.2-.488q.01-.117.02-.244a1.646,1.646,0,0,1,.088-.361.763.763,0,0,0,.059-.156,1.385,1.385,0,0,1,.059-.176,4.939,4.939,0,0,0,.166-.664,2.033,2.033,0,0,1,.225-.645,1.379,1.379,0,0,1,.146-.625,4.059,4.059,0,0,0,.244-.605,1.251,1.251,0,0,1,.107-.234,1.251,1.251,0,0,0,.107-.234,3.263,3.263,0,0,0,.127-.381q.049-.186.107-.361.156-.566.313-1.123t.293-1.123q.02-.1.049-.215a1.669,1.669,0,0,1,.068-.215,2.7,2.7,0,0,0,.127-.6,1.427,1.427,0,0,1,.186-.576.657.657,0,0,1,.01-.254q.029-.117.068-.254t.078-.254l.059-.176a3.653,3.653,0,0,0,.146-.459,1.387,1.387,0,0,1,.205-.439l.059-.205q.059-.205.137-.459T50.586-12a1.878,1.878,0,0,0,.059-.264q.039-.156.068-.293t.068-.293a1.344,1.344,0,0,1,.078-.166,1.344,1.344,0,0,0,.078-.166q.059-.215.117-.527a1.654,1.654,0,0,1,.156-.488.469.469,0,0,1,.225-.225,1.641,1.641,0,0,0,.283-.186,1.017,1.017,0,0,0,.518-.039,1.85,1.85,0,0,0,.322-.2,1.544,1.544,0,0,1,.186.049.583.583,0,0,0,.186.029,2.434,2.434,0,0,1,.518.84q.146.43.283.859.059.215.117.42a4.139,4.139,0,0,0,.137.4.715.715,0,0,0,.059.127q.039.068.078.146a1.976,1.976,0,0,1,.166.332q.068.176.127.352a.91.91,0,0,1,.176.322q.059.186.107.371t.107.352a.745.745,0,0,0,.176.283,1.667,1.667,0,0,0,.137.42,1.646,1.646,0,0,1,.137.439,2.5,2.5,0,0,1,.273.6q.156.439.313.947t.293.977q.137.469.2.664a2.23,2.23,0,0,0,.156.4q.117.244.215.439.078.215.166.449t.146.449q.039.215.088.41t.107.41a.771.771,0,0,0,.117.244.755.755,0,0,1,.117.264,1.246,1.246,0,0,1,.107.293.93.93,0,0,0,.127.293.509.509,0,0,0,.02.273,1.277,1.277,0,0,1,.078.137,3.665,3.665,0,0,0,.176.654,1.381,1.381,0,0,1,.1.518q0,.234-.088.293a1.613,1.613,0,0,0-.225.2q-.156.137-.264.215A.547.547,0,0,1,57.148.1q-.234-.02-.283.068T56.8.293a1.775,1.775,0,0,0-.3-.01.966.966,0,0,1-.137.01.345.345,0,0,0-.137.029.413.413,0,0,0-.146.127q-.137-.156-.264-.283a1.592,1.592,0,0,1-.225-.283A4.145,4.145,0,0,0,55.5-.9a4.395,4.395,0,0,0-.186-.7q-.2-.508-.361-1t-.322-1a3.944,3.944,0,0,0-.127-.391q-.068-.176-.146-.371a1.063,1.063,0,0,1,.029.322.678.678,0,0,1-.107.322,1.142,1.142,0,0,1-.117.1q-.078.059-.078.1-.234.2-.41.371a.7.7,0,0,1-.1.488,2.338,2.338,0,0,1-.254.254.775.775,0,0,1-.41-.039A.464.464,0,0,0,52.7-2.52a.423.423,0,0,0-.156-.01,1.259,1.259,0,0,1-.156.01A.581.581,0,0,1,52.09-2.6.355.355,0,0,1,52-2.676a.733.733,0,0,0-.068-.078,1.475,1.475,0,0,0-.361-.264,4.333,4.333,0,0,0-.4-.186l-.322-.283a1.947,1.947,0,0,0-.342-.244q-.156.371-.244.654a5.7,5.7,0,0,1-.205.557q-.215.664-.352,1.162T49.395-.352a.575.575,0,0,0-.146.059.33.33,0,0,1-.166.039Zm1.914-4.16q.156-.273.283-.3a.412.412,0,0,0,.225-.146q.039-.039.088-.1t.107-.117a1.277,1.277,0,0,1,.137-.078.521.521,0,0,0,.137-.1q.156-.137.264-.234a.465.465,0,0,1,.322-.1.868.868,0,0,1,.547.166,1.213,1.213,0,0,0,.527.225q.039.117.254.166a1.01,1.01,0,0,1,.332.127,6.136,6.136,0,0,1-.3-.986q-.107-.5-.264-.986-.117-.43-.273-.85t-.312-.811q-.137-.391-.234-.762a4.758,4.758,0,0,0-.254-.723,7.786,7.786,0,0,0-.312.859q-.156.508-.234.9a1.474,1.474,0,0,1-.02.273q-.039.137-.078.244t-.078.225q-.254.762-.459,1.543t-.479,1.563ZM67.324.039a.8.8,0,0,1-.41.391A1.15,1.15,0,0,1,66.67.244a.729.729,0,0,0-.264-.166,1.07,1.07,0,0,0-.176-.283.339.339,0,0,0-.137-.068.853.853,0,0,1-.2-.234,1.1,1.1,0,0,0-.176-.234.8.8,0,0,1-.146-.127l-.225-.225q-.117-.117-.215-.225t-.117-.107a2.041,2.041,0,0,1-.312-.254q-.039-.059-.088-.127a.869.869,0,0,0-.088-.107.639.639,0,0,1-.254-.166,1.846,1.846,0,0,1-.186-.244,1.461,1.461,0,0,0-.2-.244.774.774,0,0,0-.244-.166,1.2,1.2,0,0,0-.332-.322,1.345,1.345,0,0,1-.332-.3,3.217,3.217,0,0,0-.254-.264,3.636,3.636,0,0,0-.293-.244q-.078-.117-.254-.342a.568.568,0,0,0-.312-.244q-.02.449-.029.9t-.029.9q0,.234.01.488a4.407,4.407,0,0,1-.01.508q-.02.1-.049.205a.85.85,0,0,0-.029.225.958.958,0,0,1-.029.3q-.029.068-.049.127a4.152,4.152,0,0,0-.107.479.794.794,0,0,1-.205.439.629.629,0,0,1-.332-.039l-.078.078A.159.159,0,0,1,60.82.2a.326.326,0,0,0-.127-.068A.465.465,0,0,0,60.566.1a.6.6,0,0,0-.205.039.6.6,0,0,1-.205.039A.278.278,0,0,1,59.99.127a.278.278,0,0,0-.166-.049.241.241,0,0,0-.137.059A.26.26,0,0,1,59.531.2a.421.421,0,0,1-.166-.029.966.966,0,0,0-.146-.049A.712.712,0,0,1,59.229,0a.24.24,0,0,0-.01-.117l-.078-.488q.02-.137.049-.273t.049-.254q.02-.313.029-.6t.01-.576q0-.508-.01-1t.01-1q.02-.176.049-.361a2.316,2.316,0,0,0,.029-.361,8.354,8.354,0,0,1,.059-1q.059-.488.1-1,.039-.391.039-.762v-.742q0-.723-.02-1.436t-.02-1.416q0-.234.02-.635a2.084,2.084,0,0,0-.039-.615q.02-.566,0-1.113a.147.147,0,0,0,.088-.117A1.258,1.258,0,0,0,59.59-14v-.273q.176-.2.293-.2a.994.994,0,0,1,.2.02.614.614,0,0,1,.2.078.6.6,0,0,1,.332-.02q.078.039.176.078A.257.257,0,0,0,61-14.453q.215.039.215.1a.21.21,0,0,0,.039.117.419.419,0,0,0,.264-.029.425.425,0,0,1,.166-.068.5.5,0,0,1,.234.1.72.72,0,0,0,.059.264,1.04,1.04,0,0,1,.059.381,2.924,2.924,0,0,1-.02.342,2.759,2.759,0,0,0-.02.322q0,.273.02.527t.02.527a1.037,1.037,0,0,1-.01.146,1.037,1.037,0,0,0-.01.146q0,.742.039,1.5t.039,1.523a.419.419,0,0,1-.02.107.1.1,0,0,0,.02.107,4.14,4.14,0,0,0,.566-.752q.234-.4.508-.791a6.236,6.236,0,0,0,.479-.7q.244-.41.42-.742a2.183,2.183,0,0,0,.137-.234,2.183,2.183,0,0,1,.137-.234.763.763,0,0,1,.107-.186.682.682,0,0,0,.107-.205q.1-.156.176-.3t.176-.3a2.437,2.437,0,0,1,.205-.283q.107-.127.205-.264.156-.254.332-.518a5,5,0,0,0,.313-.537,1.908,1.908,0,0,0,.352-.225,2.286,2.286,0,0,1,.332-.225q.2.254.283.352a.378.378,0,0,0,.244.117.313.313,0,0,1,.049.137.156.156,0,0,0,.068.117.841.841,0,0,0,.273,0,.364.364,0,0,0,.166.146q.107.049.205.088v.127a.244.244,0,0,0,.02.107.366.366,0,0,1,.234.371,11.888,11.888,0,0,1-.811,1.26,8.139,8.139,0,0,0-.771,1.279,3.121,3.121,0,0,1-.225.41,2.013,2.013,0,0,0-.205.41,1.206,1.206,0,0,0-.215.283,1.574,1.574,0,0,1-.2.283q-.078.1-.156.205t-.156.205a4.572,4.572,0,0,0-.283.439,3.117,3.117,0,0,1-.3.439,3.555,3.555,0,0,1-.273.391,2.258,2.258,0,0,0-.264.479,2.258,2.258,0,0,1-.264.479.9.9,0,0,0-.166.342,1.6,1.6,0,0,1-.107.361,2.286,2.286,0,0,0,.313.391,4.5,4.5,0,0,0,.371.332,2,2,0,0,0,.361.381q.205.166.42.361.078.078.137.146a.853.853,0,0,0,.137.127,3.25,3.25,0,0,0,.518.449l.576.41q.215.2.537.479t.674.605q.352.322.625.605t.273.361a.624.624,0,0,1-.225.361A.408.408,0,0,0,68.32-.8q-.117.039-.117.078a.34.34,0,0,1-.059.137,1.1,1.1,0,0,0-.234.225q-.1.127-.2.244-.078.039-.146.068a.215.215,0,0,0-.107.107Zm3.164-15.02a.427.427,0,0,0,.273.078,3.635,3.635,0,0,0,.43.039.32.32,0,0,1,.234.1,2.21,2.21,0,0,1,.391.068,1.458,1.458,0,0,0,.391.049,1.777,1.777,0,0,1,.2.137.661.661,0,0,1,.156.176v.234q0,.215.02.439t.039.439a2.476,2.476,0,0,1,0,.439q-.02.225-.02.439,0,.469.02.947t.02.928A4,4,0,0,1,72.6-9.9a4,4,0,0,0-.039.566q0,.293.02.586t.02.586q0,.1-.01.215t-.01.215q0,.293.02.586t.02.586q0,.41-.02.811t-.02.811a.287.287,0,0,0,.02.107.287.287,0,0,1,.02.107q0,.352-.02.693t-.02.693q0,.508.02,1t.059.977q.02.234.049.459a3.4,3.4,0,0,1,.029.439.247.247,0,0,1-.049.146.491.491,0,0,0-.068.127q-.059.2-.088.283T72.207.1a1.432,1.432,0,0,1-.371.107,3.583,3.583,0,0,0-.41.088.741.741,0,0,0-.215-.049A.741.741,0,0,1,71,.2a.65.65,0,0,1-.352.1.841.841,0,0,1-.137-.01q-.059-.01-.137-.029a.615.615,0,0,1-.1-.264,1.985,1.985,0,0,0-.059-.283,7.551,7.551,0,0,0-.059-.937q-.059-.469-.078-.937a1.428,1.428,0,0,1,.01-.176,1.428,1.428,0,0,0,.01-.176.531.531,0,0,0-.02-.146.611.611,0,0,1-.02-.166,2.256,2.256,0,0,1,.029-.371,2.135,2.135,0,0,0,.029-.352,3.835,3.835,0,0,0-.02-.4,3.636,3.636,0,0,1-.02-.381q0-.156.01-.3t.01-.3q0-.156-.01-.283t-.029-.283a.51.51,0,0,0,.029-.2q.01-.176.01-.391V-8.242a4.6,4.6,0,0,0-.029-.527,4.6,4.6,0,0,1-.029-.527,4,4,0,0,1,.039-.566,4,4,0,0,0,.039-.566v-2.656q0-.039-.01-.205t-.02-.352q-.01-.186-.029-.342t-.02-.2q.039-.2.068-.293a1.1,1.1,0,0,1,.068-.176.564.564,0,0,1,.107-.146Q70.352-14.863,70.488-14.98ZM82.988-.312l-.117.078-.117.078a.941.941,0,0,1-.391.127.672.672,0,0,0-.391.205q-.078-.1-.117-.1h-.137q-.254,0-.293-.137a1.53,1.53,0,0,0-.244.1q-.166.078-.244.117a2.506,2.506,0,0,0,.234-.391.824.824,0,0,0,.068-.254q.01-.117.02-.244a1.646,1.646,0,0,1,.088-.361.764.764,0,0,0,.059-.156,1.386,1.386,0,0,1,.059-.176,4.939,4.939,0,0,0,.166-.664,2.033,2.033,0,0,1,.225-.645A1.379,1.379,0,0,1,82-3.359a4.058,4.058,0,0,0,.244-.605,1.251,1.251,0,0,1,.107-.234,1.251,1.251,0,0,0,.107-.234,3.263,3.263,0,0,0,.127-.381q.049-.186.107-.361.156-.566.313-1.123T83.3-7.422q.02-.1.049-.215a1.669,1.669,0,0,1,.068-.215,2.7,2.7,0,0,0,.127-.6,1.427,1.427,0,0,1,.186-.576.657.657,0,0,1,.01-.254q.029-.117.068-.254t.078-.254l.059-.176a3.655,3.655,0,0,0,.146-.459,1.387,1.387,0,0,1,.205-.439l.059-.205q.059-.205.137-.459T84.629-12a1.878,1.878,0,0,0,.059-.264q.039-.156.068-.293t.068-.293a1.344,1.344,0,0,1,.078-.166,1.344,1.344,0,0,0,.078-.166q.059-.215.117-.527a1.654,1.654,0,0,1,.156-.488.469.469,0,0,1,.225-.225,1.641,1.641,0,0,0,.283-.186,1.017,1.017,0,0,0,.518-.039,1.85,1.85,0,0,0,.322-.2,1.544,1.544,0,0,1,.186.049.583.583,0,0,0,.186.029,2.434,2.434,0,0,1,.518.84q.146.43.283.859.059.215.117.42a4.138,4.138,0,0,0,.137.4.716.716,0,0,0,.059.127q.039.068.078.146a1.976,1.976,0,0,1,.166.332q.068.176.127.352a.91.91,0,0,1,.176.322q.059.186.107.371t.107.352a.745.745,0,0,0,.176.283,1.667,1.667,0,0,0,.137.42A1.646,1.646,0,0,1,89.3-9.1a2.5,2.5,0,0,1,.273.6q.156.439.313.947t.293.977q.137.469.2.664a2.23,2.23,0,0,0,.156.4q.117.244.215.439.078.215.166.449t.146.449q.039.215.088.41t.107.41a.771.771,0,0,0,.117.244.755.755,0,0,1,.117.264,1.245,1.245,0,0,1,.107.293.93.93,0,0,0,.127.293.509.509,0,0,0,.02.273,1.277,1.277,0,0,1,.078.137,3.665,3.665,0,0,0,.176.654,1.381,1.381,0,0,1,.1.518q0,.234-.088.293a1.614,1.614,0,0,0-.225.2q-.156.137-.264.215A.547.547,0,0,1,91.191.1q-.234-.02-.283.068T90.84.293a1.775,1.775,0,0,0-.3-.01.966.966,0,0,1-.137.01.345.345,0,0,0-.137.029.413.413,0,0,0-.146.127Q89.98.293,89.854.166a1.592,1.592,0,0,1-.225-.283A4.145,4.145,0,0,0,89.541-.9a4.4,4.4,0,0,0-.186-.7q-.2-.508-.361-1t-.322-1a3.945,3.945,0,0,0-.127-.391q-.068-.176-.146-.371a1.064,1.064,0,0,1,.029.322.678.678,0,0,1-.107.322,1.141,1.141,0,0,1-.117.1q-.078.059-.078.1-.234.2-.41.371a.7.7,0,0,1-.1.488,2.337,2.337,0,0,1-.254.254.775.775,0,0,1-.41-.039.464.464,0,0,0-.215-.078.423.423,0,0,0-.156-.01,1.259,1.259,0,0,1-.156.01.581.581,0,0,1-.293-.078.355.355,0,0,1-.088-.078.734.734,0,0,0-.068-.078,1.475,1.475,0,0,0-.361-.264,4.332,4.332,0,0,0-.4-.186l-.322-.283a1.947,1.947,0,0,0-.342-.244q-.156.371-.244.654a5.7,5.7,0,0,1-.205.557q-.215.664-.352,1.162T83.438-.352a.575.575,0,0,0-.146.059.33.33,0,0,1-.166.039ZM84.9-4.473q.156-.273.283-.3a.412.412,0,0,0,.225-.146q.039-.039.088-.1t.107-.117a1.277,1.277,0,0,1,.137-.078.521.521,0,0,0,.137-.1q.156-.137.264-.234a.465.465,0,0,1,.322-.1.868.868,0,0,1,.547.166,1.213,1.213,0,0,0,.527.225q.039.117.254.166a1.01,1.01,0,0,1,.332.127,6.136,6.136,0,0,1-.3-.986q-.107-.5-.264-.986-.117-.43-.273-.85t-.312-.811q-.137-.391-.234-.762a4.758,4.758,0,0,0-.254-.723,7.786,7.786,0,0,0-.312.859q-.156.508-.234.9a1.474,1.474,0,0,1-.02.273q-.039.137-.078.244t-.078.225q-.254.762-.459,1.543t-.479,1.563Zm16.25-9.492a.269.269,0,0,0-.029.156,1.428,1.428,0,0,1,.01.176q-.039.234,0,.234a.035.035,0,0,1,.039.039l-.137.2a.474.474,0,0,1-.049.215.391.391,0,0,0-.029.234q-.059.1-.107.2a.765.765,0,0,1-.146.2h-.254a3.863,3.863,0,0,0-.459.029,4.015,4.015,0,0,1-.479.029.614.614,0,0,1-.1-.01.712.712,0,0,0-.117-.01.614.614,0,0,0-.1.01.841.841,0,0,1-.137.01,5.6,5.6,0,0,1-.576-.029,5.794,5.794,0,0,0-.6-.029h-.156a.905.905,0,0,0-.176.02q-.02.332-.029.674t-.01.693a1.147,1.147,0,0,1-.02.205,1.147,1.147,0,0,0-.02.205q-.02.254-.029.488t-.01.488q0,.547.01,1.094t.029,1.113q.02.293.039.566t.02.566q0,.664-.02,1.318T97.5-3.574a3.835,3.835,0,0,1-.02.4,3.835,3.835,0,0,0-.02.4q0,.449.02.9t.02.9q0,.215-.01.43t-.01.43a1.329,1.329,0,0,0-.137.273q-.039.117-.234.117-.137-.039-.127-.088A.093.093,0,0,0,96.953.1a.453.453,0,0,0-.264.029,1.213,1.213,0,0,1-.205.088A.4.4,0,0,0,96.357.2H96.23a.13.13,0,0,0-.078.029.336.336,0,0,1-.176.029q-.117.02-.137-.039T95.723.156A.77.77,0,0,1,95.5.244a1.085,1.085,0,0,1-.244.029Q95.137.2,95.146.127a.248.248,0,0,0-.029-.146.88.88,0,0,0-.068-.107.869.869,0,0,0-.088-.107Q95-.508,95.02-.723t.02-.469q0-.508-.039-1t-.039-1A1.533,1.533,0,0,1,95-3.516a1.707,1.707,0,0,0,.039-.371q-.039-.156-.02-.186a.12.12,0,0,0,.02-.068q0-.117-.01-.234t-.01-.234q0-.234.01-.469t.01-.469q0-.1-.01-.205t-.01-.205a2.314,2.314,0,0,1-.01-.371q.01-.2.01-.391,0-.937-.029-1.855t-.029-1.855a8.858,8.858,0,0,1,.049-.918,9.042,9.042,0,0,0,.049-.937.45.45,0,0,0-.039-.156.419.419,0,0,0-.078-.137,1.682,1.682,0,0,1-.186-.01,1.682,1.682,0,0,0-.186-.01,1.42,1.42,0,0,0-.41.059q-.371.02-.713.049t-.693.049a1.568,1.568,0,0,0-.283-.01.549.549,0,0,1-.107.01.318.318,0,0,1-.234-.078v-.254q-.117-.234-.1-.254a.08.08,0,0,0,.02-.059q0-.059-.107-.127a.246.246,0,0,1-.107-.225.494.494,0,0,0-.078-.234.26.26,0,0,1-.059-.156,1,1,0,0,1,.059-.312,1.338,1.338,0,0,1,.342-.137q.166-.039.381-.1.117-.039.215-.078a1.036,1.036,0,0,1,.215-.059,1.931,1.931,0,0,1,.273-.02,1.931,1.931,0,0,0,.273-.02q.293-.059.615-.1a5.119,5.119,0,0,1,.615-.039,2.247,2.247,0,0,1,.547.068,2.038,2.038,0,0,0,.488.068,4.36,4.36,0,0,1,.6.039,4.36,4.36,0,0,0,.6.039.465.465,0,0,1,.127.029.649.649,0,0,0,.205.029h1.895a.486.486,0,0,0,.225.02.464.464,0,0,1,.127-.02,2.074,2.074,0,0,1,.293.02,2.074,2.074,0,0,0,.293.02.927.927,0,0,0,.215-.02.9.9,0,0,1,.293.088.69.69,0,0,0,.313.068.367.367,0,0,1,.117.146A.239.239,0,0,0,101.152-13.965ZM2.227,19.625l-.141.094-.141.094a1.129,1.129,0,0,1-.469.152.807.807,0,0,0-.469.246q-.094-.117-.141-.117H.7q-.3,0-.352-.164a1.836,1.836,0,0,0-.293.117q-.2.094-.293.141a3.008,3.008,0,0,0,.281-.469.989.989,0,0,0,.082-.3q.012-.141.023-.293a1.975,1.975,0,0,1,.105-.434.916.916,0,0,0,.07-.187,1.662,1.662,0,0,1,.07-.211,5.927,5.927,0,0,0,.2-.8,2.44,2.44,0,0,1,.27-.773,1.654,1.654,0,0,1,.176-.75,4.87,4.87,0,0,0,.293-.727,1.5,1.5,0,0,1,.129-.281,1.5,1.5,0,0,0,.129-.281,3.916,3.916,0,0,0,.152-.457q.059-.223.129-.434.188-.68.375-1.348T2.6,11.094q.023-.117.059-.258a2,2,0,0,1,.082-.258,3.241,3.241,0,0,0,.152-.715,1.713,1.713,0,0,1,.223-.691.788.788,0,0,1,.012-.3q.035-.141.082-.3t.094-.3l.07-.211A4.385,4.385,0,0,0,3.551,7.5,1.665,1.665,0,0,1,3.8,6.969l.07-.246q.07-.246.164-.551T4.2,5.6a2.254,2.254,0,0,0,.07-.316q.047-.187.082-.352t.082-.352a1.613,1.613,0,0,1,.094-.2,1.613,1.613,0,0,0,.094-.2q.07-.258.141-.633a1.985,1.985,0,0,1,.188-.586.562.562,0,0,1,.27-.27,1.969,1.969,0,0,0,.34-.223,1.221,1.221,0,0,0,.621-.047,2.22,2.22,0,0,0,.387-.234,1.853,1.853,0,0,1,.223.059.7.7,0,0,0,.223.035,2.921,2.921,0,0,1,.621,1.008q.176.516.34,1.031.07.258.141.5a4.967,4.967,0,0,0,.164.48.859.859,0,0,0,.07.152q.047.082.094.176a2.372,2.372,0,0,1,.2.4q.082.211.152.422A1.091,1.091,0,0,1,9,6.84q.07.223.129.445t.129.422a.894.894,0,0,0,.211.34,2,2,0,0,0,.164.5,1.975,1.975,0,0,1,.164.527,3,3,0,0,1,.328.715q.188.527.375,1.137t.352,1.172q.164.563.234.8a2.676,2.676,0,0,0,.188.48q.141.293.258.527.094.258.2.539t.176.539q.047.258.105.492t.129.492a.926.926,0,0,0,.141.293.906.906,0,0,1,.141.316,1.5,1.5,0,0,1,.129.352,1.116,1.116,0,0,0,.152.352.611.611,0,0,0,.023.328,1.532,1.532,0,0,1,.094.164,4.4,4.4,0,0,0,.211.785,1.657,1.657,0,0,1,.117.621q0,.281-.105.352a1.936,1.936,0,0,0-.27.234q-.187.164-.316.258a.656.656,0,0,1-.387.094q-.281-.023-.34.082t-.082.152a2.13,2.13,0,0,0-.363-.012,1.159,1.159,0,0,1-.164.012.414.414,0,0,0-.164.035.5.5,0,0,0-.176.152q-.164-.187-.316-.34a1.911,1.911,0,0,1-.27-.34,4.974,4.974,0,0,0-.105-.937,5.274,5.274,0,0,0-.223-.844q-.234-.609-.434-1.2t-.387-1.2a4.734,4.734,0,0,0-.152-.469q-.082-.211-.176-.445a1.276,1.276,0,0,1,.035.387.813.813,0,0,1-.129.387,1.37,1.37,0,0,1-.141.117q-.094.07-.094.117-.281.234-.492.445a.844.844,0,0,1-.117.586,2.8,2.8,0,0,1-.3.3.93.93,0,0,1-.492-.047.557.557,0,0,0-.258-.094.507.507,0,0,0-.187-.012,1.51,1.51,0,0,1-.187.012A.7.7,0,0,1,6,16.883a.426.426,0,0,1-.105-.094.88.88,0,0,0-.082-.094,1.77,1.77,0,0,0-.434-.316,5.2,5.2,0,0,0-.48-.223l-.387-.34a2.337,2.337,0,0,0-.41-.293q-.187.445-.293.785a6.845,6.845,0,0,1-.246.668q-.258.8-.422,1.395t-.375,1.207a.69.69,0,0,0-.176.07.4.4,0,0,1-.2.047Zm2.3-4.992q.188-.328.34-.363a.494.494,0,0,0,.27-.176q.047-.047.105-.117t.129-.141a1.532,1.532,0,0,1,.164-.094.626.626,0,0,0,.164-.117q.188-.164.316-.281a.558.558,0,0,1,.387-.117,1.042,1.042,0,0,1,.656.2,1.456,1.456,0,0,0,.633.27q.047.141.3.2a1.212,1.212,0,0,1,.4.152,7.363,7.363,0,0,1-.363-1.184q-.129-.6-.316-1.184-.141-.516-.328-1.02t-.375-.973q-.164-.469-.281-.914a5.71,5.71,0,0,0-.3-.867,9.343,9.343,0,0,0-.375,1.031q-.187.609-.281,1.078a1.769,1.769,0,0,1-.023.328q-.047.164-.094.293t-.094.27q-.3.914-.551,1.852T4.43,14.633ZM18.3,13.6a3.011,3.011,0,0,0,.352.5q.3.387.691.844t.762.879q.375.422.516.609.445.656.914,1.289t.891,1.313a.859.859,0,0,1,.188.293.97.97,0,0,1,.07.363q0,.211-.105.223a.857.857,0,0,0-.223.059.976.976,0,0,1-.422.188,2.564,2.564,0,0,1-.3.023q-.258,0-.562-.012a2.053,2.053,0,0,0-.516.035.8.8,0,0,0-.164.082.312.312,0,0,1-.141.059.475.475,0,0,1-.27-.059.847.847,0,0,0-.223-.105,3.726,3.726,0,0,1-.34-.445q-.152-.234-.316-.469a2.153,2.153,0,0,0-.3-.293,1.683,1.683,0,0,1-.3-.316q-.375-.539-.762-1.031t-.785-.984a4.89,4.89,0,0,0-.41-.492q-.223-.234-.41-.469a6.389,6.389,0,0,1-.352-.539,6.389,6.389,0,0,0-.352-.539,6.679,6.679,0,0,0-.4-.574q-.258-.34-.539-.691t-.574-.668a4.462,4.462,0,0,0-.5-.48.274.274,0,0,0-.094-.234q-.094-.07-.211-.164a1.212,1.212,0,0,0-.117-.223.433.433,0,0,1-.07-.246.519.519,0,0,1,.023-.164l.047-.141a.581.581,0,0,0,.059-.176.581.581,0,0,1,.059-.176,1.618,1.618,0,0,1,.34-.539,1.618,1.618,0,0,0,.34-.539.727.727,0,0,0,.023-.176.4.4,0,0,1,.047-.176,1.1,1.1,0,0,1,.211-.281,2.415,2.415,0,0,0,.258-.3l.234-.422.234-.422a10.4,10.4,0,0,1,.727-1.043q.4-.5.75-1,.328-.469.609-.926t.609-.926q.164-.234.375-.527t.434-.574q.223-.281.457-.527a1.731,1.731,0,0,1,.469-.363q.4-.047.516.129a.373.373,0,0,0,.328.176.788.788,0,0,1,.445.211q.117.141.234.258a1.048,1.048,0,0,1,.516.117,1.678,1.678,0,0,1,.422.352,1.911,1.911,0,0,1-.246.469,3.215,3.215,0,0,0-.27.445.473.473,0,0,0-.27.234.765.765,0,0,1-.246.281q-.258.4-.516.785t-.516.738a.913.913,0,0,1-.27.223.621.621,0,0,0-.246.246.541.541,0,0,0-.07.152.541.541,0,0,1-.07.152,8.168,8.168,0,0,1-.633.867,5.62,5.62,0,0,0-.609.891,1.618,1.618,0,0,0-.187.34,2.721,2.721,0,0,1-.164.34q-.094.141-.27.4t-.352.527q-.176.27-.3.516a.935.935,0,0,0-.129.41,1.62,1.62,0,0,0,.3.469q.281.352.621.75t.656.75Q18.211,13.508,18.3,13.6Zm15.82-4.9a3.437,3.437,0,0,1-.574.844q-.363.4-.691.75a3.066,3.066,0,0,0-.445.563,3.775,3.775,0,0,1-.422.563q-.187.211-.375.387a3.337,3.337,0,0,0-.352.387q-.117.094-.223.188a1.207,1.207,0,0,0-.2.234,6.948,6.948,0,0,0,.832,1.359q.48.609,1,1.219.258.3.516.574a3.433,3.433,0,0,1,.445.574,1.863,1.863,0,0,0,.34.527,3.4,3.4,0,0,1,.316.363l.246.41a1.448,1.448,0,0,0,.293.34.289.289,0,0,0,.141.223.54.54,0,0,1,.188.223,1.191,1.191,0,0,0,.012.188.737.737,0,0,1,.012.117.688.688,0,0,1-.246.316,2.726,2.726,0,0,0-.316.27.591.591,0,0,0-.4.141.662.662,0,0,1-.445.141.891.891,0,0,0-.187.2.891.891,0,0,1-.187.2.583.583,0,0,0-.34.105,1.031,1.031,0,0,1-.34.152,1.113,1.113,0,0,1-.375-.363.925.925,0,0,0-.375-.34.51.51,0,0,0-.082-.2,1.309,1.309,0,0,1-.105-.176,10.947,10.947,0,0,1-.75-.937l-.7-.984q-.187-.211-.387-.41a5.253,5.253,0,0,1-.387-.434,2.981,2.981,0,0,1-.234-.328,2.9,2.9,0,0,0-.258-.352,1.421,1.421,0,0,1-.281-.328,1.056,1.056,0,0,0-.281-.3,1.4,1.4,0,0,0-.375.3,1.885,1.885,0,0,1-.375.328q-.187.164-.363.328a4.413,4.413,0,0,1-.363.3q-.047.539-.047,1.043v1q0,.4-.012.762a3.5,3.5,0,0,1-.105.738q-.117.023-.223-.129a.379.379,0,0,0-.223-.176.281.281,0,0,0-.152.094.141.141,0,0,1-.176.023,1.044,1.044,0,0,1-.352.211,1.07,1.07,0,0,0-.258.035,1.07,1.07,0,0,1-.258.035.5.5,0,0,1-.258-.047.853.853,0,0,1-.387.176q-.152.012-.246.012-.047-.164-.094-.316a2,2,0,0,1-.07-.34.668.668,0,0,1-.105-.211q-.035-.117-.082-.234A.519.519,0,0,0,24,18.875v-.187q0-.4-.023-.773A4.311,4.311,0,0,1,24,17.141a1.336,1.336,0,0,1-.07-.234,1.192,1.192,0,0,1-.023-.234,1.344,1.344,0,0,1,.012-.164.234.234,0,0,1,.059-.141,3.38,3.38,0,0,1-.082-.645q-.012-.34-.012-.645a1.732,1.732,0,0,1,.035-.34,1.848,1.848,0,0,0,.035-.363,6.232,6.232,0,0,0-.047-.773,6.041,6.041,0,0,1-.047-.75q.023-.258.023-.4a1.708,1.708,0,0,1,.023-.281.577.577,0,0,0-.023-.281.572.572,0,0,1,.059-.176.349.349,0,0,0,.035-.176q0-.3.012-.6T24,10.32q0-.234.012-.457t.012-.48a2.161,2.161,0,0,1,.035-.4q.035-.187.059-.375a3.714,3.714,0,0,0,.023-.41V6.816q0-.5-.047-1-.023-.117-.047-.258a1.708,1.708,0,0,1-.023-.281q-.047-.445-.07-.914t-.094-.937a.269.269,0,0,0,.047-.152V2.9a1.137,1.137,0,0,0-.023-.223,1.279,1.279,0,0,0,.094-.105,1.279,1.279,0,0,1,.094-.105q.141,0,.293.012a.481.481,0,0,1,.27.105l.27-.105a.765.765,0,0,1,.27-.059.382.382,0,0,1,.281.094q.117-.047.129-.105t.176-.059q.3-.023.434-.023a1.253,1.253,0,0,0,.246-.023.418.418,0,0,1,.117.117l.094.141a2.087,2.087,0,0,1,.832.527,3.163,3.163,0,0,0,.715.574,1.231,1.231,0,0,0,.188.117l.188.094q.211.141.422.3a2.666,2.666,0,0,0,.445.281q.234.117.27.129a.107.107,0,0,1,.059.059,3.414,3.414,0,0,1,.926.5,6.8,6.8,0,0,0,.879.574,2.966,2.966,0,0,0,.41.188q.246.094.492.2t.469.223a1.107,1.107,0,0,1,.34.258,2.039,2.039,0,0,0,.457.363,2.926,2.926,0,0,1,.387.246l.023.633a1.254,1.254,0,0,1-.035.3,1.254,1.254,0,0,0-.035.3A.821.821,0,0,0,34.125,8.7Zm-3.211-.609q-.258-.141-.516-.27a1.324,1.324,0,0,1-.445-.363q-.164-.047-.586-.223t-.855-.375q-.434-.2-.8-.352a2.47,2.47,0,0,0-.41-.152q-.07.023-.07.3V8.281q0,.445-.023.867t-.07.867a.718.718,0,0,0-.07.129q-.023.059-.047.129a6.4,6.4,0,0,0-.047.867v1.172a2.688,2.688,0,0,0,.023.328.2.2,0,0,0,.164-.059.4.4,0,0,1,.164-.105q.3-.328.609-.633l.633-.633q.141-.141.281-.3a1.713,1.713,0,0,1,.3-.281q.117-.141.211-.27a2.069,2.069,0,0,1,.211-.246q.328-.352.68-.691a3.249,3.249,0,0,0,.586-.762,1.1,1.1,0,0,0,.3-.375A.288.288,0,0,1,30.914,8.094Zm16.852,2.6q-.047.094-.094.176a.69.69,0,0,0-.07.176,2.136,2.136,0,0,1,.176.2.357.357,0,0,1,.082.223.441.441,0,0,1-.035.176.21.21,0,0,0-.012.152,2.929,2.929,0,0,1-.2.3.93.93,0,0,0-.152.3,1.071,1.071,0,0,0-.152.188q-.059.094-.105.188a.246.246,0,0,0-.152.152.358.358,0,0,1-.129.176,2.5,2.5,0,0,1-.234.445q-.211.352-.469.75t-.492.773q-.234.375-.328.492a.7.7,0,0,1-.105.188q-.059.07-.129.164a.541.541,0,0,0-.07.152.292.292,0,0,1-.07.129.846.846,0,0,1-.105.164.7.7,0,0,0-.105.188,5.873,5.873,0,0,0-.469.727q-.234.422-.445.75-.117.188-.223.375t-.223.375q-.117.188-.234.352t-.234.352a1.508,1.508,0,0,0-.328.34,1.508,1.508,0,0,1-.328.34.346.346,0,0,1-.375-.281q-.3-.07-.3,0V20a.252.252,0,0,0-.129.141.252.252,0,0,1-.129.141.8.8,0,0,1-.316-.152.48.48,0,0,0-.363-.082A1.3,1.3,0,0,0,40.5,19.8a1.879,1.879,0,0,1-.211-.223.675.675,0,0,0-.129-.234q-.082-.094-.152-.187a2.47,2.47,0,0,0-.141-.211l-.141-.187q-.164-.211-.316-.41a3.367,3.367,0,0,1-.27-.41q-.187-.281-.363-.574t-.363-.574l-.187-.281a2.62,2.62,0,0,1-.164-.281q-.047-.117-.129-.281a.406.406,0,0,0-.2-.211.5.5,0,0,0-.164-.281,1.657,1.657,0,0,1-.234-.234,3.286,3.286,0,0,1-.3-.41q-.141-.223-.281-.457-.469-.656-.879-1.289t-.809-1.312a2.1,2.1,0,0,0,.117-.562.412.412,0,0,1,.117-.3,1.282,1.282,0,0,1,.047-.281q.3-.516.586-.937a4.25,4.25,0,0,0,.363-.656q.105-.258.223-.539a.579.579,0,0,0,.188-.176.891.891,0,0,1,.188-.2A.84.84,0,0,1,37.1,7.66a.84.84,0,0,0,.211-.434.553.553,0,0,0,.234-.375.871.871,0,0,0,.375-.562,1.863,1.863,0,0,0,.316-.422q.129-.234.246-.492a1.625,1.625,0,0,0,.445-.609.573.573,0,0,0,.211-.258.887.887,0,0,1,.188-.281q.188-.3.293-.5t.223-.41a.2.2,0,0,0,.211-.117.152.152,0,0,1,.188-.094.629.629,0,0,1,.117-.375q.047-.023.141-.059t.094-.082q-.047-.281.023-.328a.768.768,0,0,0,.117-.094q.258.047.352.07a1.2,1.2,0,0,1,.3.164.457.457,0,0,1,.328.094.624.624,0,0,0,.211.141,1.071,1.071,0,0,1,.152.188.355.355,0,0,0,.176.141q.188.258.4.563t.4.563q.258.352.527.668a5.823,5.823,0,0,1,.5.691q.07.117.258.41t.422.621q.234.328.422.6a1.527,1.527,0,0,0,.258.316q.07.117.3.445t.5.691q.27.363.527.691t.352.422a6.754,6.754,0,0,1,.387.574Q47.648,10.438,47.766,10.7ZM42.4,15.1a4.509,4.509,0,0,0,.4-.633l.281-.562a1.914,1.914,0,0,0,.281-.4,1.64,1.64,0,0,1,.117-.234q.188-.281.387-.562a2.509,2.509,0,0,0,.316-.609.6.6,0,0,0,.211-.234.808.808,0,0,1,.211-.258,2.607,2.607,0,0,0-.328-.762q-.187-.27-.375-.527l-.141-.234-.141-.234a.9.9,0,0,1-.152-.141q-.059-.07-.129-.141-.047-.117-.141-.3a2.557,2.557,0,0,0-.187-.211.892.892,0,0,1-.164-.234q-.094-.094-.234-.258T42.316,8.2q-.152-.2-.27-.375t-.187-.293q-.047-.117-.082-.2T41.7,7.156a3.2,3.2,0,0,0-.234-.293,3.2,3.2,0,0,1-.234-.293.37.37,0,0,1-.129.059.2.2,0,0,0-.105.059,4.085,4.085,0,0,1-.363.563,6.435,6.435,0,0,0-.387.563q-.164.281-.328.574t-.328.574q-.117.164-.223.316t-.223.34a2.144,2.144,0,0,0-.2.34,2.144,2.144,0,0,1-.2.34,4.559,4.559,0,0,0-.3.422,3.856,3.856,0,0,0-.234.445q.07.141.223.387t.316.492q.164.246.293.457a1.843,1.843,0,0,1,.152.281,1.479,1.479,0,0,1,.3.363,1.945,1.945,0,0,0,.3.387,1.692,1.692,0,0,0,.211.328q.117.141.234.3t.3.48q.188.316.375.645t.375.609a1.223,1.223,0,0,0,.3.352,2.391,2.391,0,0,0,.387-.574A2.092,2.092,0,0,1,42.4,15.1ZM51.188,2.961a.521.521,0,0,0,.164-.07.289.289,0,0,1,.164-.047.178.178,0,0,1,.105.094.3.3,0,0,0,.105.117q.07-.047.129-.094a.415.415,0,0,1,.129-.07q.234.07.258.234a1.328,1.328,0,0,1,.211.105.626.626,0,0,0,.211.082.354.354,0,0,0,.117.141,1.136,1.136,0,0,1,.164.141,2.385,2.385,0,0,1,.621.258q.387.211.621.328l.469.234a4.137,4.137,0,0,1,.445.258,4.232,4.232,0,0,1,.422.27,2.075,2.075,0,0,0,.445.246.928.928,0,0,0,.539.328,1.528,1.528,0,0,1,.586.258q.211.117.4.246t.375.246a.579.579,0,0,0,.176.188.891.891,0,0,1,.2.188,1.463,1.463,0,0,1,.539.4l.211.141q.141.094.281.2t.258.211a.428.428,0,0,1,.141.2.9.9,0,0,0-.094.34.3.3,0,0,1-.094.223.6.6,0,0,1,.141.352,1.041,1.041,0,0,1-.4.469A.6.6,0,0,1,59,9.465a.487.487,0,0,0-.2.293.646.646,0,0,0-.223.188,1.31,1.31,0,0,1-.082.141q-.445.469-.832.809a6.383,6.383,0,0,0-.715.738,1.387,1.387,0,0,0-.4.293,3.022,3.022,0,0,0-.3.387l-.363.363q-.176.176-.363.34a.358.358,0,0,1-.152.152.338.338,0,0,0-.152.176,1.1,1.1,0,0,0-.422.328,1.435,1.435,0,0,1-.4.352l-.164.234q-.07.047-.2.152t-.258.234a3.02,3.02,0,0,0-.223.246.686.686,0,0,0-.117.188.933.933,0,0,0-.223.141q-.152.117-.3.258t-.281.281a1.18,1.18,0,0,0-.152.188l-.234.164q.023.633.035,1.277t.012,1.277v.8l-.164.211a.333.333,0,0,1-.187-.047.289.289,0,0,0-.164-.047.234.234,0,0,0-.176.094.807.807,0,0,1-.152.141.784.784,0,0,0-.27.082,1.946,1.946,0,0,1-.223.105.624.624,0,0,0-.281-.07q-.3.07-.293.023t-.105-.047q-.187.188-.234.188a.637.637,0,0,0-.176.023.637.637,0,0,1-.176.023,2.339,2.339,0,0,1-.152-.387,1.034,1.034,0,0,0-.223-.387q.07-.234-.023-.328a1.043,1.043,0,0,0,.117-.586q-.023-.328-.023-.609,0-.164.012-.316t.012-.293a3.631,3.631,0,0,0-.047-.574,3.777,3.777,0,0,1-.047-.6q0-.7.047-1.418t.047-1.418q0-.4-.035-.82t-.035-.82a4.6,4.6,0,0,1,.023-.48q.023-.223.047-.434,0-1.078.035-2.074t.035-1.98q0-.328-.012-.621t-.012-.621a2.317,2.317,0,0,1,.023-.328,2.317,2.317,0,0,0,.023-.328q.07-.727.07-1.453l-.023-.375a.315.315,0,0,1,.281-.141.5.5,0,0,1,.4.164q.164-.023.316-.059a1.3,1.3,0,0,1,.293-.035A.477.477,0,0,1,51.188,2.961ZM52.57,6.688a.5.5,0,0,1-.023.176q-.023.059-.047.105a1.082,1.082,0,0,0,.012.152,1.245,1.245,0,0,1,.012.176q0,.539-.012,1.066T52.5,9.406l-.047,1.242a1.578,1.578,0,0,0,.023.258,1.578,1.578,0,0,1,.023.258,1.192,1.192,0,0,1-.023.234,1.192,1.192,0,0,0-.023.234,2.7,2.7,0,0,0,.07.609.287.287,0,0,0,.164-.152.576.576,0,0,1,.117-.176,12.528,12.528,0,0,0,1.008-1.031q.469-.539.961-1.078.422-.445.727-.727a1.892,1.892,0,0,0,.469-.68q-.4-.258-.82-.527a5.32,5.32,0,0,0-.891-.457.387.387,0,0,0-.129-.117,2.069,2.069,0,0,0-.223-.129q-.117-.059-.234-.105a.537.537,0,0,0-.164-.047.951.951,0,0,0-.445-.234.623.623,0,0,1-.281-.059.66.66,0,0,1-.164-.105ZM72.258,10.7q-.047.094-.094.176a.69.69,0,0,0-.07.176,2.136,2.136,0,0,1,.176.2.357.357,0,0,1,.082.223.441.441,0,0,1-.035.176.21.21,0,0,0-.012.152,2.929,2.929,0,0,1-.2.3.93.93,0,0,0-.152.3,1.071,1.071,0,0,0-.152.188q-.059.094-.105.188a.246.246,0,0,0-.152.152.358.358,0,0,1-.129.176,2.5,2.5,0,0,1-.234.445q-.211.352-.469.75t-.492.773q-.234.375-.328.492a.7.7,0,0,1-.105.188q-.059.07-.129.164a.541.541,0,0,0-.07.152.292.292,0,0,1-.07.129.846.846,0,0,1-.105.164.7.7,0,0,0-.105.188,5.873,5.873,0,0,0-.469.727q-.234.422-.445.75-.117.188-.223.375t-.223.375q-.117.188-.234.352t-.234.352a1.508,1.508,0,0,0-.328.34,1.508,1.508,0,0,1-.328.34.346.346,0,0,1-.375-.281q-.3-.07-.3,0V20a.252.252,0,0,0-.129.141.252.252,0,0,1-.129.141.8.8,0,0,1-.316-.152.48.48,0,0,0-.363-.082,1.3,1.3,0,0,0-.211-.246,1.879,1.879,0,0,1-.211-.223.675.675,0,0,0-.129-.234q-.082-.094-.152-.187a2.47,2.47,0,0,0-.141-.211l-.141-.187q-.164-.211-.316-.41a3.367,3.367,0,0,1-.27-.41q-.187-.281-.363-.574t-.363-.574l-.187-.281a2.62,2.62,0,0,1-.164-.281q-.047-.117-.129-.281a.406.406,0,0,0-.2-.211.5.5,0,0,0-.164-.281,1.657,1.657,0,0,1-.234-.234,3.286,3.286,0,0,1-.3-.41q-.141-.223-.281-.457-.469-.656-.879-1.289t-.809-1.312a2.1,2.1,0,0,0,.117-.562.412.412,0,0,1,.117-.3,1.282,1.282,0,0,1,.047-.281q.3-.516.586-.937a4.25,4.25,0,0,0,.363-.656q.105-.258.223-.539a.579.579,0,0,0,.188-.176.891.891,0,0,1,.188-.2.84.84,0,0,1,.211-.434.84.84,0,0,0,.211-.434.553.553,0,0,0,.234-.375.871.871,0,0,0,.375-.562,1.863,1.863,0,0,0,.316-.422q.129-.234.246-.492a1.625,1.625,0,0,0,.445-.609.573.573,0,0,0,.211-.258.887.887,0,0,1,.188-.281q.188-.3.293-.5t.223-.41a.2.2,0,0,0,.211-.117.152.152,0,0,1,.188-.094.629.629,0,0,1,.117-.375q.047-.023.141-.059t.094-.082q-.047-.281.023-.328a.768.768,0,0,0,.117-.094q.258.047.352.07a1.2,1.2,0,0,1,.3.164.457.457,0,0,1,.328.094.624.624,0,0,0,.211.141,1.071,1.071,0,0,1,.152.188.355.355,0,0,0,.176.141q.188.258.4.563t.4.563q.258.352.527.668a5.823,5.823,0,0,1,.5.691q.07.117.258.41t.422.621q.234.328.422.6a1.527,1.527,0,0,0,.258.316q.07.117.3.445t.5.691q.27.363.527.691t.352.422a6.754,6.754,0,0,1,.387.574Q72.141,10.438,72.258,10.7ZM66.891,15.1a4.509,4.509,0,0,0,.4-.633l.281-.562a1.914,1.914,0,0,0,.281-.4,1.64,1.64,0,0,1,.117-.234q.188-.281.387-.562a2.509,2.509,0,0,0,.316-.609.6.6,0,0,0,.211-.234.808.808,0,0,1,.211-.258,2.607,2.607,0,0,0-.328-.762q-.187-.27-.375-.527l-.141-.234-.141-.234a.9.9,0,0,1-.152-.141q-.059-.07-.129-.141-.047-.117-.141-.3a2.557,2.557,0,0,0-.187-.211.892.892,0,0,1-.164-.234q-.094-.094-.234-.258T66.809,8.2q-.152-.2-.27-.375t-.187-.293q-.047-.117-.082-.2t-.082-.176a3.2,3.2,0,0,0-.234-.293,3.2,3.2,0,0,1-.234-.293.37.37,0,0,1-.129.059.2.2,0,0,0-.105.059,4.085,4.085,0,0,1-.363.563,6.435,6.435,0,0,0-.387.563q-.164.281-.328.574t-.328.574q-.117.164-.223.316t-.223.34a2.144,2.144,0,0,0-.2.34,2.144,2.144,0,0,1-.2.34,4.559,4.559,0,0,0-.3.422,3.856,3.856,0,0,0-.234.445q.07.141.223.387t.316.492q.164.246.293.457a1.843,1.843,0,0,1,.152.281,1.479,1.479,0,0,1,.3.363,1.945,1.945,0,0,0,.3.387,1.692,1.692,0,0,0,.211.328q.117.141.234.3t.3.48q.188.316.375.645t.375.609a1.223,1.223,0,0,0,.3.352,2.391,2.391,0,0,0,.387-.574A2.092,2.092,0,0,1,66.891,15.1Zm15.7.891a1.089,1.089,0,0,1,.2.34q.035.129.082.258t.082.246a.817.817,0,0,1,.035.141.551.551,0,0,1-.059.27,2.987,2.987,0,0,1-.176.27l-1.852.691q-.914.34-1.875.668a4.734,4.734,0,0,0-.469.152,2.553,2.553,0,0,1-.469.129.391.391,0,0,1-.152.082l-.246.082q-.141.047-.27.082a.825.825,0,0,1-.176.035,1.386,1.386,0,0,1-.41.035,2.657,2.657,0,0,0-.434.012.219.219,0,0,0-.164.117q-.047.094-.105.2a.527.527,0,0,1-.5.27,3.817,3.817,0,0,1-.422-.023,1.714,1.714,0,0,1-.445-.117.257.257,0,0,1-.035-.176.257.257,0,0,0-.035-.176.6.6,0,0,0-.328.035.933.933,0,0,1-.234.082.653.653,0,0,1-.105-.223.493.493,0,0,0-.129-.223,1.192,1.192,0,0,1-.023-.234v-.234q0-.164.012-.387a.746.746,0,0,1,.082-.34q.07-1.336.07-2.684V12.348q0-.223-.012-.457T74,11.457a1.747,1.747,0,0,0-.035-.293,2.238,2.238,0,0,0,.023-.316v-.574a.627.627,0,0,0-.047-.234,1.112,1.112,0,0,0,.023-.258,1.192,1.192,0,0,0-.023-.234,1.192,1.192,0,0,1-.023-.234q0-.187.012-.363t.012-.363q0-.609-.059-1.207t-.059-1.207q0-.8-.012-1.594t-.035-1.594a1.111,1.111,0,0,0,.094-.4.8.8,0,0,1,.516-.117,1.541,1.541,0,0,0,.375.047.871.871,0,0,0,.211-.023.916.916,0,0,0,.188-.07,1.016,1.016,0,0,1,.2.059.505.505,0,0,0,.2.035q.352-.07.387-.023a.426.426,0,0,0,.105.094.32.32,0,0,0,.152-.082.206.206,0,0,1,.152-.059q.141,0,.211.176a1.151,1.151,0,0,0,.164.293,1.142,1.142,0,0,0,.094.469q.047.961.035,1.9t.059,1.875q.023.422.059.879t.035.879q0,.7.012,1.418t.012,1.441a1.713,1.713,0,0,0,.012.211,1.713,1.713,0,0,1,.012.211q0,.281-.023.539t-.023.516v1.828q0,.234-.012.48a3.264,3.264,0,0,0,.012.48l.094.281q.258-.094.527-.2a2.7,2.7,0,0,1,.574-.152q.188-.047.352-.094t.352-.094a3.874,3.874,0,0,1,.516-.258l.375-.141q.4-.141.773-.293t.773-.293a.334.334,0,0,0,.3-.047,2.173,2.173,0,0,0,.422.047,1.5,1.5,0,0,1,.316.4.8.8,0,0,0,.176.258q-.047.117.012.141a.154.154,0,0,1,.082.117q.094.047.023.129A.474.474,0,0,0,82.594,15.992ZM85.1,2.023a.513.513,0,0,0,.328.094,4.362,4.362,0,0,0,.516.047.384.384,0,0,1,.281.117,2.652,2.652,0,0,1,.469.082,1.75,1.75,0,0,0,.469.059,2.133,2.133,0,0,1,.234.164.793.793,0,0,1,.188.211v.281q0,.258.023.527t.047.527a2.972,2.972,0,0,1,0,.527q-.023.27-.023.527,0,.563.023,1.137t.023,1.113a4.8,4.8,0,0,1-.047.68,4.8,4.8,0,0,0-.047.68q0,.352.023.7t.023.7q0,.117-.012.258t-.012.258q0,.352.023.7t.023.7q0,.492-.023.973t-.023.973a.344.344,0,0,0,.023.129.344.344,0,0,1,.023.129q0,.422-.023.832t-.023.832q0,.609.023,1.2t.07,1.172q.023.281.059.551a4.076,4.076,0,0,1,.035.527.3.3,0,0,1-.059.176.589.589,0,0,0-.082.152q-.07.234-.105.34t-.387.012a1.719,1.719,0,0,1-.445.129,4.3,4.3,0,0,0-.492.105.89.89,0,0,0-.258-.059.89.89,0,0,1-.258-.059.78.78,0,0,1-.422.117,1.01,1.01,0,0,1-.164-.012q-.07-.012-.164-.035a.738.738,0,0,1-.117-.316,2.381,2.381,0,0,0-.07-.34,9.062,9.062,0,0,0-.07-1.125q-.07-.562-.094-1.125a1.713,1.713,0,0,1,.012-.211,1.713,1.713,0,0,0,.012-.211.637.637,0,0,0-.023-.176.733.733,0,0,1-.023-.2,2.708,2.708,0,0,1,.035-.445,2.562,2.562,0,0,0,.035-.422,4.6,4.6,0,0,0-.023-.48,4.364,4.364,0,0,1-.023-.457q0-.187.012-.363t.012-.363q0-.187-.012-.34t-.035-.34a.612.612,0,0,0,.035-.234q.012-.211.012-.469V10.109a5.52,5.52,0,0,0-.035-.633,5.52,5.52,0,0,1-.035-.633,4.8,4.8,0,0,1,.047-.68,4.8,4.8,0,0,0,.047-.68V4.3q0-.047-.012-.246t-.023-.422q-.012-.223-.035-.41t-.023-.234q.047-.234.082-.352a1.32,1.32,0,0,1,.082-.211.677.677,0,0,1,.129-.176Q84.938,2.164,85.1,2.023Zm10.8.539a1.46,1.46,0,0,1,.164.7,2.258,2.258,0,0,1-.141.75,1.2,1.2,0,0,1-.445.609,5.09,5.09,0,0,1-.41.762q-.2.293-.387.574-.07.164-.141.316a1.969,1.969,0,0,1-.187.316q-.07.117-.3.469t-.48.738q-.246.387-.434.738a1.45,1.45,0,0,0-.187.445q0,.094.223.234a1.938,1.938,0,0,1,.293.211q.117.117.223.234t.223.234q.258.211.5.422t.5.469q.492.445,1.031.844a4.961,4.961,0,0,1,.961.938.732.732,0,0,1,.516.563,2.263,2.263,0,0,1,.07.844,1.31,1.31,0,0,1,.082.141l.082.164a1.106,1.106,0,0,1-.105.551,4.367,4.367,0,0,0-.223.434,1.566,1.566,0,0,0-.152.469,1.092,1.092,0,0,1-.152.422.375.375,0,0,1-.129.117.323.323,0,0,0-.129.141,1.6,1.6,0,0,0-.152.387,2.122,2.122,0,0,1-.152.41,2.7,2.7,0,0,1-.176.375,2.7,2.7,0,0,0-.176.375,1.755,1.755,0,0,0-.082.281.32.32,0,0,1-.223.234,4.559,4.559,0,0,1-.316.82,4.559,4.559,0,0,0-.316.82,2.591,2.591,0,0,0-.527.27,1.049,1.049,0,0,1-.5.2.138.138,0,0,1-.117-.07.354.354,0,0,0-.141-.117.18.18,0,0,0-.129,0,.5.5,0,0,1-.129.023.194.194,0,0,1-.176-.094.376.376,0,0,0-.152-.141l-.141.047a.442.442,0,0,1-.141.023q-.164,0-.187-.082a.285.285,0,0,0-.141-.152q-.281-.141-.328-.258a.3.3,0,0,0-.141-.164,5.937,5.937,0,0,1,.445-1.16q.281-.551.539-1.113a1.848,1.848,0,0,1,.176-.352,3.755,3.755,0,0,0,.2-.352q.07-.164.211-.422a5.715,5.715,0,0,0,.258-.539q.117-.281.211-.527a1.2,1.2,0,0,0,.094-.41.619.619,0,0,0-.187-.492q-.68-.562-1.277-1.148t-1.254-1.2q-.422-.375-.914-.773a.42.42,0,0,1-.141-.211.83.83,0,0,0-.141-.258.307.307,0,0,0-.141-.141.307.307,0,0,1-.141-.141.52.52,0,0,1-.094-.223.283.283,0,0,0-.141-.2.485.485,0,0,0-.281-.141.485.485,0,0,1-.281-.141.175.175,0,0,0,.059-.152,1.082,1.082,0,0,1-.012-.152.242.242,0,0,1,.141-.234.262.262,0,0,0,.141-.258,1.085,1.085,0,0,1,.141-.234,10.937,10.937,0,0,1,.586-1.219q.328-.586.68-1.172.117-.187.223-.363t.223-.363q.07-.164.129-.293a.845.845,0,0,1,.176-.246,7.353,7.353,0,0,0,.551-.7,2.479,2.479,0,0,0,.34-.8,2.948,2.948,0,0,1,.094-.328,3.222,3.222,0,0,1,.176-.422,2.8,2.8,0,0,1,.223-.375.325.325,0,0,1,.258-.164.973.973,0,0,1,.34.094,3.5,3.5,0,0,0,.387.141q.141.047.293.082a1.3,1.3,0,0,0,.293.035.351.351,0,0,0,.188-.059.39.39,0,0,1,.211-.059,1.038,1.038,0,0,1,.352.059A1.651,1.651,0,0,0,95.906,2.563Z" transform="translate(0.234 15.02)"/>
</svg>
