<svg xmlns="http://www.w3.org/2000/svg" viewBox="0 0 24.482 25"><g id="Group_1" data-name="Group 1" transform="translate(-103.605 -181.178)"><path id="Path_1" data-name="Path 1" class="cls-1" d="M25.088-.611a3.079 3.079 0 0 1-.207.736.323.323 0 0 0-.023.275 2.137 2.137 0 0 0-.437 1.15 1.389 1.389 0 0 1-.483 1.012h-.943a.94.94 0 0 1-.3-.046 3.5 3.5 0 0 1-.575.046h-.62q-.644 0-1.312-.023t-1.312-.023a1.251 1.251 0 0 1-.345-.046 1.093 1.093 0 0 0-.3-.046q-.414-.046-.805-.069t-.759-.023q-.644 0-1.22.023t-1.173.023q-1.933 0-3.82-.023t-3.82-.023q-.368 0-.759.023t-.805.023a2.537 2.537 0 0 0-.506.092 7.711 7.711 0 0 0-1.174-.09H2.216a3.292 3.292 0 0 1-.6-.115q-.46-.115-.6-.161A6.458 6.458 0 0 0 .651.585a4.853 4.853 0 0 0 0-.966 3.354 3.354 0 0 1-.046-.552q.23-.6.506-.6a.745.745 0 0 0 .46-.138 1.612 1.612 0 0 0 .506-.092 3.334 3.334 0 0 1 .782 0 7.1 7.1 0 0 0 .782.046h1.566q.782 0 1.565-.046a7.047 7.047 0 0 1 1.335-.046q.46.046.874.046.46 0 .9-.023t.9-.023q1.473 0 2.922.023t2.922.023q.414 0 .828.023t.874.069a3.021 3.021 0 0 0 .644.023 3.54 3.54 0 0 1 .69.023q.322 0 .6.023t.552.023h.253a.574.574 0 0 0 .253-.046q.322.046.644.069t.69.023a3.876 3.876 0 0 0 .69-.092 4.882 4.882 0 0 0 1.012.276q.138.092.437.345t.296.393z" transform="translate(103 183)"/><path id="Path_2" data-name="Path 2" class="cls-1" d="M25.088-.611a3.079 3.079 0 0 1-.207.736.323.323 0 0 0-.023.275 2.137 2.137 0 0 0-.437 1.15 1.389 1.389 0 0 1-.483 1.012h-.943a.94.94 0 0 1-.3-.046 3.5 3.5 0 0 1-.575.046h-.62q-.644 0-1.312-.023t-1.312-.023a1.251 1.251 0 0 1-.345-.046 1.093 1.093 0 0 0-.3-.046q-.414-.046-.805-.069t-.759-.023q-.644 0-1.22.023t-1.173.023q-1.933 0-3.82-.023t-3.82-.023q-.368 0-.759.023t-.805.023a2.537 2.537 0 0 0-.506.092 7.711 7.711 0 0 0-1.174-.09H2.216a3.292 3.292 0 0 1-.6-.115q-.46-.115-.6-.161A6.458 6.458 0 0 0 .651.585a4.853 4.853 0 0 0 0-.966 3.354 3.354 0 0 1-.046-.552q.23-.6.506-.6a.745.745 0 0 0 .46-.138 1.612 1.612 0 0 0 .506-.092 3.334 3.334 0 0 1 .782 0 7.1 7.1 0 0 0 .782.046h1.566q.782 0 1.565-.046a7.047 7.047 0 0 1 1.335-.046q.46.046.874.046.46 0 .9-.023t.9-.023q1.473 0 2.922.023t2.922.023q.414 0 .828.023t.874.069a3.021 3.021 0 0 0 .644.023 3.54 3.54 0 0 1 .69.023q.322 0 .6.023t.552.023h.253a.574.574 0 0 0 .253-.046q.322.046.644.069t.69.023a3.876 3.876 0 0 0 .69-.092 4.882 4.882 0 0 0 1.012.276q.138.092.437.345t.296.393z" transform="translate(103 203.613)"/><path id="Path_3" data-name="Path 3" class="cls-1" d="M25.088-.611a3.079 3.079 0 0 1-.207.736.323.323 0 0 0-.023.275 2.137 2.137 0 0 0-.437 1.15 1.389 1.389 0 0 1-.483 1.012h-.943a.94.94 0 0 1-.3-.046 3.5 3.5 0 0 1-.575.046h-.62q-.644 0-1.312-.023t-1.312-.023a1.251 1.251 0 0 1-.345-.046 1.093 1.093 0 0 0-.3-.046q-.414-.046-.805-.069t-.759-.023q-.644 0-1.22.023t-1.173.023q-1.933 0-3.82-.023t-3.82-.023q-.368 0-.759.023t-.805.023a2.537 2.537 0 0 0-.506.092 7.711 7.711 0 0 0-1.174-.09H2.216a3.292 3.292 0 0 1-.6-.115q-.46-.115-.6-.161A6.458 6.458 0 0 0 .651.585a4.853 4.853 0 0 0 0-.966 3.354 3.354 0 0 1-.046-.552q.23-.6.506-.6a.745.745 0 0 0 .46-.138 1.612 1.612 0 0 0 .506-.092 3.334 3.334 0 0 1 .782 0 7.1 7.1 0 0 0 .782.046h1.566q.782 0 1.565-.046a7.047 7.047 0 0 1 1.335-.046q.46.046.874.046.46 0 .9-.023t.9-.023q1.473 0 2.922.023t2.922.023q.414 0 .828.023t.874.069a3.021 3.021 0 0 0 .644.023 3.54 3.54 0 0 1 .69.023q.322 0 .6.023t.552.023h.253a.574.574 0 0 0 .253-.046q.322.046.644.069t.69.023a3.876 3.876 0 0 0 .69-.092 4.882 4.882 0 0 0 1.012.276q.138.092.437.345t.296.393z" transform="translate(103 193.307)"/></g></svg>